<svg width="550" height="570" viewBox="0 0 550 570" fill="none" xmlns="http://www.w3.org/2000/svg">
<path d="M504.025 526.611C480.358 549.434 357.81 574.161 261.523 568.217C165.235 562.273 2.29568e-05 558.707 0 423.191C-2.29568e-05 287.675 142.649 260.334 152.159 252.013C161.668 243.692 106.551 226 118.874 133.139C130.601 44.7618 215.165 0.0648287 304.317 6.48408e-05C397.073 -0.0673171 477.831 52.3852 493.327 143.837C508.231 231.804 456.476 274.599 456.476 282.92C456.476 291.241 483.823 307.276 498.082 325.715C525.394 361.034 548.848 378.544 549.197 423.191C549.569 470.734 537.31 494.515 504.025 526.611Z" fill="#FBDC00"/>
<path d="M247.382 285.252C208.625 275.544 152.301 242.857 152.301 242.857C152.301 242.857 153.409 245.962 153.409 248.452C153.409 251.389 151.815 252.34 151.815 252.34C151.815 252.34 190.423 278.002 227.447 287.582C311.554 309.344 343.706 292.701 343.706 292.701C343.706 292.701 298.713 298.109 247.382 285.252Z" fill="#A27600"/>
<path d="M387.529 193.764C404.942 183.447 408.894 162.823 429.135 162.857C451.189 162.895 456.197 184.252 471.929 199.708C483.647 211.22 497.452 209.712 500.459 225.86C505.982 255.526 461.683 252.009 431.512 252.525C417.247 252.769 321.721 243.967 343.546 212.108C354.814 195.657 370.374 203.929 387.529 193.764Z" fill="#FF7D33"/>
<path fill-rule="evenodd" clip-rule="evenodd" d="M292.43 126.006C309.197 126.308 322.662 137.87 324.526 154.536C326.607 173.157 311.163 189.859 292.43 190.198C273.382 190.543 257.956 174.745 259.145 154.536C260.15 137.446 275.312 125.698 292.43 126.006ZM294.807 143.837C294.807 139.242 298.533 135.516 303.128 135.516C307.724 135.516 311.449 139.242 311.449 143.837C311.449 148.433 307.724 152.159 303.128 152.159C298.533 152.159 294.807 148.433 294.807 143.837Z" fill="black"/>
</svg>
